# xmcd CD database file
#
# Track frame offsets:
#	150
#	12847
#	24412
#	35304
#	44826
#	57400
#	70693
#	80464
#	90024
#	100167
#	111110
#	123111
#	141540
#	151032
#	162089
#	169240
#
# Disc length: 2422 seconds
#
# Revision: 0
# Processed by: cddbd v1.5.2PL0 Copyright (c) Steve Scherf et al.
# Submitted via: CDex 1.70beta2
#
DISCID=c0097410
DTITLE=Various Artist - 16 Greatest Truck Driver Hits
DYEAR=2005
DGENRE=Country
TTITLE0=Claude Gray - How Fast Them Trucks Can Go
TTITLE1=Willis Brothers - Give Me Forty Acres
TTITLE2=Red Sovine - Woman Behind The Man Behind The Wheel
TTITLE3=Pete Drake - Gear Shiftin'
TTITLE4=Jimmy Martin - Widow Maker
TTITLE5=Stanley Brothers - Rollin' On Rubber Wheels
TTITLE6=Charlie Moore - Tombstone Every Mile
TTITLE7=Hylo Brown - Truck Drivin' Man
TTITLE8=Del Reeves - Looking At The World Thru A Windshield
TTITLE9=Reno and Smiley - Remington Ride
TTITLE10=Slim Jacobs - That's Truck Drivin'
TTITLE11=Bobby Sykes - Diesel Smoke and Dangerous Curves
TTITLE12=Moore and Napier - Truck Driver's Queen
TTITLE13=Coleman Wilson - Radar Blues
TTITLE14=Benny Martin - Big Footed Dan
TTITLE15=Red Simpson - I Burn Up The Roads That I Drive On
EXTD=YEAR: 2005
EXTT0=
EXTT1=
EXTT2=
EXTT3=
EXTT4=
EXTT5=
EXTT6=
EXTT7=
EXTT8=
EXTT9=
EXTT10=
EXTT11=
EXTT12=
EXTT13=
EXTT14=
EXTT15=
PLAYORDER=
